<svg xmlns="http://www.w3.org/2000/svg" viewBox="0 0 180 60">
  <rect width="180" height="60" fill="white"/>
  <!-- GS logo mark - stylized G and S -->
  <g transform="translate(10, 8)">
    <!-- G shape -->
    <path d="M22 8 C10 8 2 16 2 26 C2 36 10 44 22 44 C28 44 34 41 38 36 L38 26 L22 26 L22 34 L30 34 C28 38 25 40 22 40 C14 40 8 34 8 26 C8 18 14 12 22 12 C26 12 30 14 32 17 L38 13 C35 9 29 8 22 8Z" fill="#1E60A8"/>
    <!-- S shape -->
    <path d="M46 8 C38 8 33 12 33 19 C33 26 38 29 46 31 C52 33 54 35 54 38 C54 41 51 43 47 43 C43 43 39 41 37 38 L31 42 C34 46 40 47 47 47 C56 47 61 43 61 37 C61 30 56 27 48 25 C42 23 40 21 40 18 C40 15 43 12 47 12 C50 12 53 14 55 17 L61 13 C58 9 53 8 46 8Z" fill="#1E60A8"/>
  </g>
  <text x="78" y="40" font-family="Arial, sans-serif" font-weight="700" font-size="18" fill="#333">글로벌</text>
</svg>
