<svg xmlns="http://www.w3.org/2000/svg" viewBox="0 0 240 60">
  <rect width="240" height="60" fill="white"/>
  <!-- Flame icon for city gas -->
  <path d="M24 50 C14 44 8 34 12 22 C14 28 18 30 20 28 C16 18 20 8 28 4 C26 12 30 18 34 20 C32 12 36 6 42 4 C38 16 44 24 40 34 C44 30 46 24 44 18 C50 26 50 38 42 46 C45 42 45 36 42 32 C38 42 32 48 24 50Z" fill="#E8401A"/>
  <!-- Text -->
  <text x="56" y="28" font-family="'Noto Sans KR', Arial, sans-serif" font-weight="900" font-size="15" fill="#1a1a1a">한국도시가스</text>
  <text x="56" y="48" font-family="Arial, sans-serif" font-weight="600" font-size="12" fill="#666">Korea City Gas</text>
</svg>
